<?xml version="1.0" encoding="UTF-8" standalone="no"?>
<!DOCTYPE svg PUBLIC "-//W3C//DTD SVG 1.1//EN" "http://www.w3.org/Graphics/SVG/1.1/DTD/svg11.dtd">
<svg width="100%" height="100%" viewBox="0 0 298 402" version="1.1" xmlns="http://www.w3.org/2000/svg" xmlns:xlink="http://www.w3.org/1999/xlink" xml:space="preserve" xmlns:serif="http://www.serif.com/" style="fill-rule:evenodd;clip-rule:evenodd;stroke-linejoin:round;stroke-miterlimit:2;">
    <g transform="matrix(1.57291,0,0,1.57291,-1120.94,-1011.92)">
        <g transform="matrix(0.481849,0,0,0.506975,680.767,643.784)">
            <path d="M352.853,-0.066C345.027,0.118 337.189,0.304 329.367,-0.028C325.918,-0.174 323.221,-0.399 319.778,-0.655C310.927,-1.311 310.535,-0.439 301.832,0.927C298.716,1.416 294.669,2.615 291.542,3.035C281.922,4.328 283.344,4.123 274.2,7.213C272.203,7.888 255.452,11.841 254.354,12.179C234.711,18.217 215.719,26.787 196.735,34.574C179.835,41.506 163.943,48.725 149.192,59.772C143.476,64.052 142.103,66.414 136.246,70.5C134.061,72.025 128.241,78.161 126.111,79.762C119.486,84.746 117.5,85.672 112.019,91.75C102.444,102.37 93.31,109.18 82.729,118.746C77.71,123.282 75.909,128.76 75.352,134.71C74.878,139.774 75.367,145.201 74.963,150.517C73.419,170.819 74.962,190.255 75.048,210.594C75.1,222.894 73.031,235.172 73.354,247.569C73.483,252.523 73.713,257.477 74.124,262.416C74.361,265.269 73.739,269.685 73.682,272.547C73.553,279.022 73.132,286.767 73.231,293.467C73.39,304.266 73.936,310.169 73.887,321.049C73.832,333.079 71.601,345.216 70.875,357.209C70.868,357.328 70.574,370.733 69.79,374.877C69.172,378.147 68.513,390.518 68.132,393.824C66.731,405.989 67.181,413.092 68.075,425.127C68.926,436.572 66.223,448.222 66.175,459.739C66.163,462.627 66.435,466.83 67.27,469.595C68.379,473.265 69.249,477.846 70.996,481.259C73.684,486.508 77.083,489.98 82.668,493.171C97.34,501.552 113.709,503.395 130.381,503.038C146.275,502.698 162.437,500.348 177.5,500.319C185.623,500.303 194.767,500.15 202.886,499.882C215.646,499.461 214.281,499.412 226.888,497.898C239.514,496.383 252.168,495.075 264.843,494.05C272.286,493.449 279.784,493.093 287.218,492.399C293.884,491.777 300.452,491.221 307.143,490.992C314.807,490.73 322.555,490.855 330.057,489.267C335.499,488.115 338.948,485.651 344.113,483.252C367.84,472.229 388.862,457.614 409.265,441.17C414.871,436.652 422.103,429.589 427.166,424.469C435.465,416.078 439.995,408.361 447.59,399.327C449.904,396.574 455.404,388.961 456.935,384.787C459.512,377.763 458.425,373.208 458.226,366.04C457.721,347.9 458.844,329.745 458.602,311.599C458.434,299.03 456.953,286.504 456.741,273.936C456.431,255.551 458.013,236.126 454.469,217.844C451.552,202.797 443.348,189.674 437.968,175.534C437.064,173.159 434.288,167.777 433.371,165.407C429.159,154.528 424.382,147.521 419.671,136.84C416.06,128.65 413.309,120.105 409.971,111.8C398.064,82.175 398.681,48.996 386.946,19.29C383.969,11.754 378.314,4.811 370.449,2.219C364.275,0.184 363.084,0.141 356.687,-0.111C355.405,-0.161 354.121,-0.116 352.839,-0.066L352.853,-0.066ZM353.08,7.455C353.102,7.454 353.123,7.454 353.145,7.453C354.216,7.411 355.289,7.365 356.359,7.407C361.701,7.617 362.7,7.629 367.856,9.328C373.555,11.206 377.377,16.473 379.535,21.935C391.274,51.654 390.663,84.847 402.575,114.485C405.944,122.865 408.726,131.484 412.37,139.748C417.03,150.316 421.774,157.242 425.941,168.006C426.855,170.366 429.623,175.727 430.523,178.093C435.757,191.846 443.847,204.571 446.684,219.208C450.149,237.084 448.522,256.08 448.825,274.056C449.037,286.616 450.518,299.134 450.686,311.694C450.929,329.875 449.806,348.064 450.312,366.239C450.483,372.378 451.667,376.293 449.46,382.31C448.156,385.863 443.376,392.287 441.405,394.631C433.955,403.493 429.539,411.084 421.397,419.316C416.515,424.253 409.551,431.075 404.145,435.432C384.251,451.465 363.772,465.744 340.637,476.492C336.092,478.603 333.124,480.91 328.336,481.923C321.306,483.411 314.04,483.228 306.859,483.473C300.004,483.707 293.274,484.273 286.445,484.911C279.044,485.601 271.581,485.954 264.172,486.553C251.39,487.586 238.629,488.905 225.897,490.433C213.666,491.901 214.99,491.954 202.611,492.362C194.575,492.627 185.524,492.779 177.483,492.795C162.369,492.824 146.151,495.174 130.203,495.516C115.032,495.841 100.097,494.348 86.746,486.722C82.629,484.37 80.095,481.835 78.114,477.966C76.553,474.917 75.87,470.798 74.88,467.519C74.224,465.347 74.082,462.038 74.091,459.769C74.14,448.066 76.836,436.226 75.972,424.597C75.116,413.08 74.661,406.283 76.002,394.642C76.372,391.426 76.981,379.389 77.582,376.208C78.405,371.852 78.771,357.766 78.779,357.641C79.512,345.516 81.748,333.244 81.803,321.082C81.853,310.148 81.306,304.215 81.146,293.361C81.049,286.741 81.469,279.088 81.597,272.69C81.658,269.62 82.27,264.882 82.016,261.822C81.616,257.019 81.394,252.201 81.268,247.382C80.946,235.038 83.016,222.812 82.965,210.564C82.879,190.419 81.33,171.168 82.859,151.059C83.26,145.785 82.767,140.4 83.237,135.377C83.625,131.238 84.694,127.353 88.184,124.198C98.975,114.443 108.266,107.476 118.031,96.646C123.07,91.057 124.933,90.245 131.024,85.663C133.11,84.093 138.79,78.059 140.931,76.566C146.879,72.416 148.286,70.029 154.092,65.682C168.287,55.052 183.609,48.153 199.872,41.482C218.627,33.789 237.383,25.304 256.79,19.338C257.901,18.996 274.833,14.985 276.852,14.302C285.184,11.487 283.885,11.664 292.651,10.485C295.832,10.058 299.952,8.848 303.122,8.351C310.905,7.129 311.247,6.26 319.163,6.847C322.7,7.109 325.47,7.339 329.015,7.489C337.029,7.829 345.061,7.643 353.08,7.455Z" style="fill:rgb(25,29,49);"/>
            <path d="M352.982,3.694C345.054,3.88 337.114,4.067 329.191,3.731C325.694,3.582 322.961,3.355 319.47,3.096C311.087,2.474 310.72,3.345 302.477,4.639C299.334,5.132 295.25,6.337 292.097,6.76C282.904,7.996 284.264,7.805 275.526,10.757C273.518,11.436 256.676,15.419 255.572,15.758C236.047,21.761 217.173,30.288 198.303,38.028C181.722,44.83 166.115,51.889 151.642,62.727C145.881,67.041 144.491,69.415 138.589,73.533C136.425,75.042 130.676,81.127 128.568,82.713C122.209,87.495 120.285,88.365 115.025,94.198C105.355,104.923 96.142,111.812 85.456,121.472C76.947,129.164 79.716,140.198 78.911,150.788C77.374,170.994 78.92,190.337 79.006,210.579C79.058,222.853 76.989,235.105 77.311,247.476C77.438,252.362 77.664,257.248 78.07,262.119C78.316,265.075 77.698,269.653 77.639,272.619C77.511,279.055 77.091,286.754 77.189,293.414C77.348,304.24 77.895,310.158 77.845,321.065C77.79,333.161 75.557,345.366 74.827,357.425C74.82,357.547 74.49,371.293 73.686,375.542C73.076,378.768 72.442,390.972 72.067,394.233C70.696,406.136 71.148,413.086 72.023,424.862C72.881,436.399 70.182,448.144 70.133,459.754C70.122,462.333 70.329,466.088 71.075,468.557C72.124,472.031 72.901,476.382 74.555,479.612C76.889,484.172 79.856,487.175 84.707,489.947C112.73,505.954 147.315,496.616 177.492,496.557C185.574,496.541 194.671,496.389 202.749,496.122C215.318,495.708 213.974,495.656 226.393,494.166C239.072,492.644 251.779,491.331 264.508,490.302C271.933,489.702 279.414,489.347 286.831,488.655C293.579,488.025 300.228,487.464 307.001,487.233C314.424,486.979 321.93,487.133 329.196,485.595C334.311,484.513 337.52,482.127 342.375,479.872C365.806,468.987 386.556,454.54 406.705,438.301C412.211,433.863 419.309,426.921 424.282,421.893C432.502,413.581 436.975,405.927 444.497,396.979C446.64,394.43 451.78,387.412 453.197,383.548C455.589,377.028 454.454,372.793 454.269,366.14C453.763,347.982 454.887,329.81 454.644,311.647C454.476,299.082 452.995,286.56 452.783,273.996C452.476,255.816 454.081,236.605 450.577,218.526C447.7,203.684 439.552,190.76 434.245,176.814C433.343,174.443 430.571,169.072 429.656,166.706C425.467,155.885 420.706,148.919 416.021,138.294C412.393,130.067 409.626,121.485 406.273,113.143C394.364,83.511 394.978,50.325 383.24,20.612C380.673,14.114 375.935,8.008 369.152,5.774C363.487,3.907 362.393,3.879 356.523,3.648C355.344,3.602 354.162,3.648 352.982,3.694Z" style="fill:rgb(25,29,49);"/>
        </g>
        <g transform="matrix(0.0272959,-7.52386e-22,7.52386e-22,-0.0273021,735.714,847.674)">
            <path d="M2235,5110C1472,5057 871,4867 558,4580C473,4502 390,4379 353,4275L325,4195L322,2593C319,806 315,914 389,765C580,379 1184,112 2070,24C2312,-1 2808,-1 3050,24C3944,113 4549,383 4736,775C4803,914 4800,823 4800,2560C4800,4287 4802,4205 4740,4338C4650,4531 4486,4676 4209,4809C3906,4955 3531,5048 3058,5095C2871,5114 2412,5122 2235,5110ZM2900,4789C3572,4742 4120,4570 4358,4332C4710,3980 4274,3584 3360,3426C3078,3377 2932,3366 2560,3366C2189,3366 2042,3377 1760,3426C1470,3476 1244,3543 1044,3640C310,3995 612,4509 1676,4719C1818,4747 2121,4786 2255,4793C2403,4801 2768,4799 2900,4789ZM859,3376C1627,2980 3077,2929 4007,3266C4157,3320 4283,3382 4398,3456L4481,3510L4478,3193L4475,2875L4446,2820C4308,2558 3814,2354 3110,2269C2950,2249 2877,2246 2560,2246C2244,2246 2170,2249 2010,2269C1302,2354 813,2558 671,2825L645,2875L642,3193L639,3510L706,3465C743,3441 812,3400 859,3376ZM775,2489C1155,2214 1996,2047 2796,2088C3561,2128 4101,2284 4448,2566L4481,2593L4475,1915L4446,1860C4308,1598 3814,1394 3110,1309C2950,1289 2877,1286 2560,1286C2244,1286 2170,1289 2010,1309C1302,1394 813,1598 671,1865L645,1915L639,2593L672,2566C690,2552 737,2517 775,2489ZM775,1529C1155,1254 1996,1087 2796,1128C3561,1168 4101,1324 4448,1606L4480,1633L4480,1311C4480,1018 4478,986 4461,939C4364,684 3900,463 3269,371C3007,332 2891,325 2550,325C2189,326 2037,338 1760,386C1166,488 751,697 659,939C642,986 640,1018 640,1311L640,1633L673,1606C690,1592 737,1557 775,1529Z" style="fill:rgb(134,163,184);fill-rule:nonzero;"/>
        </g>
    </g>
</svg>
